PathFileType  4	(X/Y/Z) /workspace/opencap-mono/results/ba8f9f72-c3c0-4cdb-a5f6-69ba924cb011/abb3620c-82e1-4ee9-a98e-9a9992d31a42/MarkerData/abb3620c-82e1-4ee9-a98e-9a9992d31a42_5
DataRate	CameraRate	NumFrames	NumMarkers	Units	OrigDataRate	OrigDataStartFrame	OrigNumFrames
60.0	60.0	4	63	m	60.0	631	720
Frame#	Time	sternum			r_shoulder			l_shoulder			r_elbow			l_elbow			r_melbow			l_melbow			r_wrist_radius			l_wrist_radius			r_wrist_ulna			l_wrist_ulna			C7			r_ASIS			l_ASIS			r_PSIS			l_PSIS			r_knee			l_knee			r_mknee			l_mknee			r_ankle			l_ankle			r_mankle			l_mankle			r_5meta			l_5meta			r_toe			l_toe			r_pinky			l_pinky			r_index			l_index			L4			T6			r_big_toe			l_big_toe			l_calc			r_calc			Nose			Neck			RShoulder			RElbow			RWrist			LShoulder			LElbow			LWrist			MidHip			RHip			RKnee			RAnkle			LHip			LKnee			LAnkle			REye			LEye			REar			LEar			LBigToe			LSmallToe			LHeel			RBigToe			RSmallToe			RHeel			
		X1	Y1	Z1	X2	Y2	Z2	X3	Y3	Z3	X4	Y4	Z4	X5	Y5	Z5	X6	Y6	Z6	X7	Y7	Z7	X8	Y8	Z8	X9	Y9	Z9	X10	Y10	Z10	X11	Y11	Z11	X12	Y12	Z12	X13	Y13	Z13	X14	Y14	Z14	X15	Y15	Z15	X16	Y16	Z16	X17	Y17	Z17	X18	Y18	Z18	X19	Y19	Z19	X20	Y20	Z20	X21	Y21	Z21	X22	Y22	Z22	X23	Y23	Z23	X24	Y24	Z24	X25	Y25	Z25	X26	Y26	Z26	X27	Y27	Z27	X28	Y28	Z28	X29	Y29	Z29	X30	Y30	Z30	X31	Y31	Z31	X32	Y32	Z32	X33	Y33	Z33	X34	Y34	Z34	X35	Y35	Z35	X36	Y36	Z36	X37	Y37	Z37	X38	Y38	Z38	X39	Y39	Z39	X40	Y40	Z40	X41	Y41	Z41	X42	Y42	Z42	X43	Y43	Z43	X44	Y44	Z44	X45	Y45	Z45	X46	Y46	Z46	X47	Y47	Z47	X48	Y48	Z48	X49	Y49	Z49	X50	Y50	Z50	X51	Y51	Z51	X52	Y52	Z52	X53	Y53	Z53	X54	Y54	Z54	X55	Y55	Z55	X56	Y56	Z56	X57	Y57	Z57	X58	Y58	Z58	X59	Y59	Z59	X60	Y60	Z60	X61	Y61	Z61	X62	Y62	Z62	X63	Y63	Z63	

631	10.5000000	5.6905703	2.2812952	15.1448538	5.5291926	2.3222552	15.1494867	5.8264499	2.2806152	15.0499249	5.3434036	2.0266152	15.1077042	5.9051601	1.9358452	15.0735972	5.3720920	2.0122852	15.0742213	5.8615019	1.9205452	15.0608854	5.5360634	1.9184752	15.2606341	5.7877678	2.0127152	15.2974481	5.5068617	1.8874252	15.2700887	5.8079095	1.9800652	15.3144978	5.6548822	2.3195552	15.0315232	5.5559047	1.8641452	15.2445858	5.7523052	1.8342652	15.1619123	5.5423952	1.8783852	15.0640297	5.6386339	1.8657252	15.0174586	5.5435456	1.4611952	15.4251059	5.7003677	1.3694152	15.1481204	5.6318606	1.4436552	15.3644351	5.6045180	1.3918452	15.1860018	5.4492990	1.0607352	15.2694961	5.5586545	0.9530252	15.0617915	5.5056116	1.0461652	15.2611753	5.5124961	0.9592152	15.0992099	5.4282805	0.9771052	15.3356295	5.6029357	0.8765052	15.1198998	5.4885563	0.9674052	15.3728064	5.5849770	0.8917852	15.1876586	5.5552172	1.8413552	15.3348635	5.7895546	1.9998952	15.3931388	5.5990711	1.8914252	15.3228074	5.7619845	2.0542552	15.3751960	5.6103220	1.9671952	15.0532575	5.6308851	2.1916252	15.0104138	5.5245065	0.9481052	15.3956829	5.5706206	0.8845652	15.2325249	5.4979773	0.9277152	15.0213821	5.4545381	1.0381752	15.1943497	5.7496563	2.4789252	15.1871141	5.6634059	2.2265852	15.0913287	5.4994183	2.2501352	15.1347090	5.3729541	2.0228452	15.1008616	5.5307287	1.8880952	15.2617104	5.8273935	2.2030252	15.0479485	5.8783259	1.9364252	15.0768625	5.7841214	1.9853052	15.3098821	5.6236295	1.7853352	15.1493000	5.5430634	1.7975352	15.1932820	5.5758789	1.4208352	15.4171226	5.4786085	1.0453552	15.2569471	5.7041998	1.7731452	15.1053088	5.6611518	1.3397352	15.1668411	5.5249204	0.9529352	15.0764701	5.7027187	2.5105052	15.1616297	5.7617223	2.5041652	15.1314479	5.6291814	2.4696652	15.1065621	5.7547750	2.4558952	15.0456646	5.5900399	0.8726652	15.2485206	5.6255669	0.8594552	15.1760004	5.4979773	0.9277152	15.0213821	5.5233696	0.9358952	15.4164590	5.4436243	0.9498352	15.3919068	5.4514269	1.0204752	15.1923141
632	10.5166667	5.6988707	2.2961252	15.1788024	5.5370185	2.3362352	15.1786792	5.8365934	2.2982352	15.0878004	5.3502853	2.0443052	15.1203470	5.9212788	1.9556352	15.1191027	5.3806746	2.0302652	15.0880435	5.8780667	1.9389552	15.1051977	5.5331822	1.9304452	15.2806078	5.7920401	2.0471652	15.3300260	5.5034693	1.8991552	15.2875621	5.8109661	2.0157852	15.3505581	5.6654997	2.3342052	15.0644779	5.5676845	1.8791052	15.2776743	5.7644958	1.8483152	15.1969357	5.5555024	1.8926352	15.0973951	5.6519352	1.8800252	15.0517090	5.5582646	1.4785152	15.4604808	5.7081505	1.3829252	15.1659059	5.6462433	1.4612152	15.4002710	5.6126949	1.4045352	15.2047876	5.4799901	1.0590252	15.3471416	5.5663884	0.9672752	15.0696017	5.5368502	1.0463552	15.3392084	5.5204359	0.9733952	15.1068624	5.4640135	0.9804652	15.4208008	5.6063836	0.8855752	15.1245970	5.5252485	0.9769252	15.4575533	5.5881120	0.8983652	15.1926955	5.5482143	1.8511652	15.3536435	5.7888238	2.0414252	15.4263186	5.5924119	1.9015552	15.3454881	5.7627925	2.0945452	15.4028041	5.6234236	1.9812852	15.0862562	5.6438736	2.2060552	15.0427087	5.5625950	0.9615252	15.4811030	5.5726674	0.8898152	15.2368668	5.5052794	0.9463152	15.0277994	5.4854033	1.0303652	15.2742720	5.7585931	2.4927752	15.2222532	5.6738095	2.2426652	15.1239851	5.5081631	2.2644552	15.1618363	5.3802391	2.0403052	15.1150056	5.5277324	1.8999552	15.2807477	5.8394691	2.2208752	15.0861291	5.8942901	1.9557452	15.1208065	5.7875231	2.0205552	15.3443269	5.6359931	1.7998252	15.1831241	5.5552844	1.8121452	15.2267970	5.5911410	1.4382652	15.4545271	5.5099602	1.0441152	15.3355185	5.7167151	1.7875152	15.1394465	5.6689137	1.3527952	15.1837010	5.5330850	0.9681052	15.0841612	5.7118248	2.5246652	15.1969029	5.7708169	2.5182752	15.1667930	5.6381895	2.4845052	15.1413593	5.7638484	2.4706852	15.0807240	5.5912699	0.8764452	15.2526029	5.6272978	0.8649352	15.1802390	5.5052794	0.9463152	15.0277994	5.5625392	0.9512552	15.5028025	5.4816052	0.9590652	15.4791194	5.4831003	1.0123852	15.2738159
633	10.5333333	5.7067295	2.3090852	15.2129644	5.5449045	2.3488952	15.2105588	5.8449015	2.3127952	15.1235070	5.3561215	2.0603452	15.1441761	5.9342459	1.9723952	15.1630615	5.3872740	2.0463652	15.1126257	5.8912229	1.9546652	15.1490350	5.5288895	1.9361052	15.3078677	5.8005415	2.0752352	15.3654365	5.4979852	1.9055152	15.3126445	5.8187528	2.0449652	15.3881401	5.6741352	2.3464152	15.0979208	5.5783131	1.8917852	15.3131609	5.7753543	1.8605352	15.2339640	5.5671629	1.9051152	15.1331533	5.6636780	1.8924652	15.0881896	5.5697873	1.4893552	15.4921805	5.7166848	1.3951552	15.1882789	5.6574700	1.4728952	15.4322741	5.6215878	1.4156352	15.2280008	5.5079245	1.0562152	15.4221333	5.5738726	0.9816852	15.0789175	5.5652533	1.0454052	15.4139994	5.5282463	0.9874852	15.1161648	5.4973875	0.9831952	15.5024888	5.6092171	0.8945552	15.1294050	5.5595887	0.9853552	15.5377609	5.5908025	0.9041452	15.1978339	5.5387449	1.8541752	15.3789198	5.7951715	2.0747552	15.4618282	5.5845565	1.9033752	15.3739996	5.7701921	2.1267552	15.4347328	5.6348399	1.9935152	15.1215916	5.6541120	2.2180352	15.0766894	5.5983186	0.9736252	15.5611834	5.5744061	0.8940052	15.2412304	5.5123995	0.9658252	15.0359082	5.5133318	1.0220752	15.3518318	5.7675598	2.5047752	15.2560270	5.6828021	2.2564252	15.1578925	5.5163944	2.2772852	15.1930936	5.3863028	2.0558052	15.1399559	5.5224976	1.9058252	15.3069283	5.8492141	2.2355652	15.1226823	5.9072468	1.9720852	15.1640542	5.7955561	2.0494052	15.3810968	5.6470024	1.8123352	15.2189538	5.5661002	1.8247152	15.2622606	5.6031717	1.4493152	15.4879533	5.5385097	1.0418652	15.4110839	5.7279045	1.7999552	15.1756470	5.6775064	1.3646652	15.2050971	5.5411854	0.9834452	15.0935988	5.7207789	2.5369352	15.2310350	5.7795147	2.5302852	15.2005518	5.6465529	2.4973052	15.1758117	5.7717765	2.4829652	15.1144770	5.5921833	0.8790252	15.2563941	5.6283851	0.8697552	15.1840120	5.5123995	0.9658252	15.0359082	5.5994168	0.9652552	15.5835313	5.5174281	0.9675352	15.5620155	5.5118170	1.0040052	15.3528798
634	10.5500000	5.7117735	2.3193352	15.2462772	5.5503711	2.3591152	15.2411668	5.8507816	2.3250252	15.1589309	5.3587131	2.0747652	15.1664922	5.9434034	1.9859352	15.2026729	5.3906306	2.0603452	15.1355965	5.9005379	1.9675552	15.1880247	5.5295281	1.9544752	15.3346796	5.8047074	2.0951452	15.3978875	5.4992665	1.9231452	15.3390720	5.8220293	2.0654952	15.4220962	5.6803885	2.3566652	15.1306279	5.5866414	1.9014752	15.3455116	5.7836267	1.8701252	15.2672155	5.5762319	1.9153052	15.1657612	5.6726475	1.9026852	15.1212476	5.5763732	1.4957352	15.5180694	5.7238546	1.4053352	15.2088459	5.6637751	1.4799252	15.4583630	5.6290362	1.4245652	15.2492715	5.5296829	1.0544452	15.4909901	5.5802749	0.9945552	15.0864599	5.5873160	1.0452852	15.4823692	5.5350136	0.9998652	15.1238001	5.5241533	0.9868552	15.5767922	5.6113770	0.9027152	15.1318245	5.5870843	0.9939752	15.6101206	5.5928029	0.9088752	15.2004770	5.5399548	1.8733852	15.4068256	5.7970634	2.0979452	15.4940684	5.5844083	1.9238252	15.4023094	5.7733272	2.1492652	15.4644964	5.6436611	2.0035752	15.1539736	5.6618688	2.2282352	15.1090825	5.6270138	0.9855152	15.6329108	5.5754741	0.8970452	15.2429863	5.5185932	0.9836852	15.0426913	5.5351804	1.0156352	15.4233347	5.7727352	2.5141852	15.2905487	5.6892167	2.2679752	15.1906086	5.5220463	2.2879452	15.2227839	5.3888589	2.0700952	15.1627740	5.5237984	1.9239052	15.3340711	5.8563871	2.2480152	15.1584333	5.9163388	1.9854552	15.2029068	5.7991097	2.0696852	15.4143877	5.6554400	1.8222152	15.2512120	5.5744157	1.8345652	15.2943074	5.6100818	1.4558852	15.5153947	5.5607389	1.0406352	15.4803037	5.7364733	1.8098752	15.2081209	5.6848263	1.3744452	15.2247742	5.5481635	0.9970252	15.1014208	5.7260136	2.5465352	15.2657608	5.7847404	2.5400252	15.2352734	5.6517663	2.5074052	15.2100863	5.7770601	2.4934352	15.1488614	5.5924216	0.8805352	15.2574210	5.6288699	0.8738752	15.1850546	5.5185932	0.9836852	15.0426913	5.6291995	0.9788452	15.6556004	5.5464329	0.9763052	15.6368885	5.5343988	0.9976352	15.4256735
